<svg xmlns="http://www.w3.org/2000/svg" xmlns:xlink="http://www.w3.org/1999/xlink" width="128" zoomAndPan="magnify" viewBox="0 0 96 95.999999" height="128" preserveAspectRatio="xMidYMid meet" version="1.2"><defs><clipPath id="2dfe73b0d1"><path d="M 1.28125 7.308594 L 93.933594 7.308594 L 93.933594 89.476562 L 1.28125 89.476562 Z M 1.28125 7.308594 "/></clipPath></defs><g id="a09fb5caf6"><g clip-rule="nonzero" clip-path="url(#2dfe73b0d1)"><path style=" stroke:none;fill-rule:evenodd;fill:#000000;fill-opacity:1;" d="M 55.316406 79.164062 L 3.847656 79.164062 C 3.675781 79.164062 3.511719 79.179688 3.34375 79.214844 C 3.179688 79.246094 3.019531 79.296875 2.863281 79.359375 C 2.707031 79.425781 2.558594 79.507812 2.417969 79.601562 C 2.277344 79.695312 2.148438 79.804688 2.03125 79.921875 C 1.910156 80.042969 1.804688 80.175781 1.714844 80.316406 C 1.621094 80.457031 1.542969 80.605469 1.480469 80.761719 C 1.417969 80.917969 1.371094 81.078125 1.339844 81.246094 C 1.308594 81.414062 1.292969 81.578125 1.296875 81.75 L 1.296875 86.882812 C 1.292969 87.050781 1.308594 87.21875 1.34375 87.382812 C 1.375 87.546875 1.421875 87.707031 1.488281 87.863281 C 1.550781 88.015625 1.628906 88.164062 1.722656 88.304688 C 1.816406 88.445312 1.921875 88.574219 2.039062 88.691406 C 2.15625 88.808594 2.285156 88.917969 2.425781 89.007812 C 2.566406 89.101562 2.714844 89.179688 2.867188 89.246094 C 3.023438 89.308594 3.183594 89.355469 3.347656 89.390625 C 3.511719 89.421875 3.679688 89.4375 3.847656 89.4375 L 55.316406 89.4375 C 55.484375 89.4375 55.652344 89.421875 55.816406 89.390625 C 55.980469 89.355469 56.144531 89.308594 56.300781 89.246094 C 56.457031 89.179688 56.601562 89.105469 56.746094 89.011719 C 56.886719 88.917969 57.015625 88.8125 57.136719 88.695312 C 57.253906 88.574219 57.363281 88.445312 57.457031 88.308594 C 57.550781 88.167969 57.632812 88.019531 57.699219 87.867188 C 57.761719 87.710938 57.8125 87.550781 57.847656 87.382812 C 57.882812 87.21875 57.898438 87.054688 57.902344 86.882812 L 57.902344 81.75 C 57.902344 81.578125 57.886719 81.410156 57.851562 81.242188 C 57.820312 81.078125 57.773438 80.914062 57.707031 80.757812 C 57.640625 80.601562 57.5625 80.453125 57.46875 80.308594 C 57.375 80.167969 57.269531 80.039062 57.148438 79.917969 C 57.027344 79.796875 56.898438 79.691406 56.753906 79.597656 C 56.613281 79.503906 56.464844 79.421875 56.308594 79.359375 C 56.148438 79.292969 55.988281 79.246094 55.820312 79.210938 C 55.652344 79.179688 55.488281 79.164062 55.316406 79.164062 Z M 88.804688 27.851562 L 88.804688 20.128906 C 88.804688 19.960938 88.785156 19.792969 88.75 19.628906 C 88.71875 19.464844 88.667969 19.300781 88.601562 19.148438 C 88.535156 18.992188 88.453125 18.84375 88.359375 18.703125 C 88.265625 18.566406 88.15625 18.4375 88.035156 18.316406 C 87.914062 18.199219 87.785156 18.09375 87.644531 18 C 87.5 17.90625 87.351562 17.828125 87.195312 17.765625 C 87.039062 17.703125 86.878906 17.65625 86.710938 17.625 C 86.546875 17.59375 86.378906 17.578125 86.210938 17.578125 C 86.042969 17.578125 85.875 17.59375 85.710938 17.625 C 85.546875 17.660156 85.386719 17.707031 85.230469 17.769531 C 85.078125 17.832031 84.929688 17.914062 84.789062 18.007812 C 84.648438 18.097656 84.519531 18.203125 84.402344 18.324219 C 84.285156 18.441406 84.179688 18.570312 84.085938 18.710938 C 83.992188 18.851562 83.914062 18.996094 83.851562 19.152344 C 83.785156 19.308594 83.738281 19.46875 83.707031 19.632812 C 83.671875 19.796875 83.65625 19.960938 83.660156 20.128906 L 83.660156 27.851562 L 78.5 27.851562 L 78.5 20.128906 C 78.5 19.960938 78.484375 19.792969 78.449219 19.628906 C 78.417969 19.460938 78.367188 19.300781 78.304688 19.144531 C 78.238281 18.988281 78.160156 18.839844 78.066406 18.699219 C 77.972656 18.558594 77.867188 18.429688 77.746094 18.308594 C 77.628906 18.191406 77.496094 18.085938 77.355469 17.992188 C 77.214844 17.898438 77.066406 17.816406 76.910156 17.753906 C 76.753906 17.6875 76.59375 17.640625 76.429688 17.605469 C 76.261719 17.574219 76.09375 17.558594 75.925781 17.558594 C 75.757812 17.558594 75.589844 17.574219 75.425781 17.605469 C 75.257812 17.640625 75.097656 17.6875 74.941406 17.753906 C 74.785156 17.816406 74.636719 17.898438 74.496094 17.992188 C 74.355469 18.085938 74.226562 18.191406 74.105469 18.308594 C 73.988281 18.429688 73.882812 18.558594 73.785156 18.699219 C 73.691406 18.839844 73.613281 18.988281 73.550781 19.144531 C 73.484375 19.300781 73.433594 19.460938 73.402344 19.628906 C 73.371094 19.792969 73.355469 19.960938 73.355469 20.128906 L 73.355469 27.851562 L 70.769531 27.851562 C 70.601562 27.847656 70.433594 27.863281 70.269531 27.894531 C 70.101562 27.925781 69.941406 27.976562 69.785156 28.039062 C 69.628906 28.101562 69.484375 28.179688 69.34375 28.273438 C 69.203125 28.367188 69.074219 28.472656 68.953125 28.589844 C 68.835938 28.710938 68.726562 28.839844 68.636719 28.976562 C 68.542969 29.117188 68.460938 29.265625 68.398438 29.421875 C 68.335938 29.578125 68.285156 29.738281 68.253906 29.902344 C 68.222656 30.066406 68.207031 30.234375 68.207031 30.402344 L 68.207031 35.539062 C 68.207031 35.875 68.222656 36.214844 68.25 36.550781 C 68.277344 36.886719 68.316406 37.222656 68.371094 37.558594 C 68.425781 37.890625 68.492188 38.222656 68.574219 38.550781 C 68.65625 38.878906 68.75 39.203125 68.855469 39.523438 C 68.960938 39.84375 69.082031 40.164062 69.210938 40.472656 C 69.34375 40.785156 69.488281 41.089844 69.644531 41.390625 C 69.796875 41.691406 69.964844 41.984375 70.144531 42.273438 C 70.324219 42.558594 70.515625 42.839844 70.714844 43.109375 C 70.917969 43.382812 71.128906 43.644531 71.351562 43.902344 C 71.574219 44.15625 71.804688 44.402344 72.046875 44.640625 C 72.289062 44.875 72.539062 45.101562 72.796875 45.320312 C 73.058594 45.535156 73.324219 45.742188 73.601562 45.9375 C 73.878906 46.132812 74.160156 46.316406 74.453125 46.488281 C 74.742188 46.664062 75.039062 46.824219 75.339844 46.972656 C 75.644531 47.125 75.953125 47.261719 76.269531 47.386719 C 76.582031 47.511719 76.902344 47.621094 77.222656 47.722656 L 77.222656 66.746094 C 77.234375 67.015625 77.214844 67.289062 77.175781 67.558594 C 77.132812 67.832031 77.070312 68.09375 76.984375 68.355469 C 76.894531 68.613281 76.785156 68.863281 76.65625 69.101562 C 76.523438 69.34375 76.371094 69.570312 76.203125 69.78125 C 76.03125 69.996094 75.839844 70.191406 75.632812 70.371094 C 75.429688 70.550781 75.210938 70.710938 74.972656 70.851562 C 74.738281 70.992188 74.496094 71.113281 74.238281 71.210938 C 73.984375 71.308594 73.722656 71.382812 73.453125 71.433594 C 73.292969 71.460938 73.128906 71.480469 72.964844 71.492188 C 72.800781 71.5 72.636719 71.503906 72.472656 71.496094 C 72.308594 71.488281 72.144531 71.472656 71.984375 71.445312 C 71.820312 71.417969 71.660156 71.386719 71.503906 71.34375 C 71.34375 71.300781 71.1875 71.246094 71.035156 71.1875 C 70.882812 71.125 70.734375 71.058594 70.589844 70.980469 C 70.445312 70.902344 70.304688 70.820312 70.167969 70.726562 C 70.03125 70.636719 69.902344 70.535156 69.777344 70.429688 C 69.652344 70.324219 69.535156 70.210938 69.421875 70.089844 C 69.308594 69.96875 69.203125 69.84375 69.105469 69.714844 C 69.003906 69.582031 68.914062 69.445312 68.832031 69.304688 C 68.746094 69.164062 68.671875 69.019531 68.601562 68.867188 C 68.535156 68.71875 68.476562 68.566406 68.425781 68.410156 C 68.375 68.253906 68.332031 68.09375 68.300781 67.933594 C 68.265625 67.773438 68.242188 67.613281 68.226562 67.449219 C 68.210938 67.285156 68.203125 67.121094 68.207031 66.957031 L 68.207031 62.480469 C 68.207031 62.019531 68.179688 61.554688 68.132812 61.097656 C 68.085938 60.632812 68.015625 60.175781 67.925781 59.722656 C 67.832031 59.269531 67.722656 58.820312 67.585938 58.378906 C 67.449219 57.933594 67.292969 57.5 67.113281 57.074219 C 66.933594 56.644531 66.738281 56.226562 66.515625 55.820312 C 66.296875 55.414062 66.058594 55.015625 65.800781 54.632812 C 65.542969 54.246094 65.265625 53.875 64.972656 53.519531 C 64.675781 53.164062 64.363281 52.820312 64.035156 52.492188 C 63.707031 52.167969 63.367188 51.855469 63.007812 51.5625 C 62.648438 51.269531 62.277344 50.996094 61.890625 50.738281 C 61.503906 50.484375 61.105469 50.246094 60.699219 50.03125 C 60.289062 49.8125 59.871094 49.613281 59.441406 49.4375 C 59.015625 49.261719 58.578125 49.105469 58.136719 48.972656 C 57.691406 48.839844 57.242188 48.726562 56.789062 48.640625 C 56.335938 48.550781 55.875 48.484375 55.414062 48.4375 C 54.953125 48.394531 54.492188 48.371094 54.027344 48.371094 L 52.753906 48.371094 L 52.753906 17.578125 C 52.753906 17.242188 52.738281 16.90625 52.703125 16.570312 C 52.671875 16.234375 52.621094 15.902344 52.554688 15.570312 C 52.488281 15.242188 52.40625 14.914062 52.308594 14.59375 C 52.207031 14.269531 52.09375 13.953125 51.964844 13.644531 C 51.835938 13.332031 51.691406 13.027344 51.53125 12.730469 C 51.375 12.433594 51.199219 12.144531 51.011719 11.863281 C 50.824219 11.585938 50.625 11.316406 50.410156 11.054688 C 50.195312 10.792969 49.96875 10.546875 49.730469 10.308594 C 49.492188 10.070312 49.242188 9.84375 48.980469 9.628906 C 48.71875 9.417969 48.449219 9.21875 48.167969 9.03125 C 47.886719 8.84375 47.597656 8.671875 47.300781 8.511719 C 47.003906 8.355469 46.699219 8.210938 46.386719 8.082031 C 46.078125 7.953125 45.757812 7.839844 45.4375 7.746094 C 45.113281 7.648438 44.785156 7.566406 44.457031 7.5 C 44.125 7.4375 43.792969 7.386719 43.457031 7.355469 C 43.121094 7.324219 42.785156 7.308594 42.449219 7.308594 L 16.714844 7.308594 C 16.378906 7.308594 16.042969 7.324219 15.707031 7.355469 C 15.371094 7.390625 15.039062 7.4375 14.710938 7.503906 C 14.378906 7.570312 14.054688 7.648438 13.730469 7.746094 C 13.410156 7.84375 13.09375 7.957031 12.78125 8.085938 C 12.46875 8.214844 12.167969 8.359375 11.871094 8.515625 C 11.574219 8.675781 11.285156 8.847656 11.003906 9.035156 C 10.722656 9.222656 10.453125 9.421875 10.195312 9.636719 C 9.933594 9.847656 9.6875 10.074219 9.449219 10.3125 C 9.210938 10.550781 8.984375 10.800781 8.769531 11.058594 C 8.558594 11.320312 8.355469 11.589844 8.167969 11.871094 C 7.984375 12.148438 7.8125 12.4375 7.652344 12.734375 C 7.492188 13.03125 7.351562 13.335938 7.222656 13.648438 C 7.09375 13.957031 6.980469 14.273438 6.882812 14.597656 C 6.785156 14.917969 6.703125 15.246094 6.636719 15.574219 C 6.574219 15.90625 6.523438 16.238281 6.492188 16.574219 C 6.457031 16.90625 6.441406 17.242188 6.441406 17.578125 L 6.441406 74.027344 L 52.765625 74.027344 L 52.765625 56.070312 L 54.039062 56.070312 C 54.25 56.070312 54.460938 56.078125 54.671875 56.097656 C 54.878906 56.117188 55.089844 56.148438 55.292969 56.191406 C 55.5 56.230469 55.703125 56.28125 55.90625 56.339844 C 56.109375 56.402344 56.304688 56.472656 56.5 56.550781 C 56.695312 56.632812 56.886719 56.722656 57.070312 56.820312 C 57.257812 56.917969 57.4375 57.027344 57.613281 57.140625 C 57.789062 57.257812 57.957031 57.382812 58.121094 57.515625 C 58.285156 57.648438 58.441406 57.792969 58.589844 57.941406 C 58.738281 58.089844 58.878906 58.242188 59.011719 58.40625 C 59.148438 58.570312 59.273438 58.738281 59.390625 58.910156 C 59.507812 59.085938 59.613281 59.265625 59.714844 59.453125 C 59.8125 59.636719 59.902344 59.828125 59.984375 60.023438 C 60.066406 60.214844 60.136719 60.414062 60.195312 60.617188 C 60.257812 60.816406 60.308594 61.019531 60.351562 61.226562 C 60.390625 61.433594 60.421875 61.640625 60.445312 61.851562 C 60.464844 62.0625 60.472656 62.269531 60.472656 62.480469 L 60.472656 66.441406 C 60.472656 72.785156 65.140625 78.492188 71.472656 79.097656 C 71.683594 79.117188 71.894531 79.132812 72.109375 79.144531 C 72.320312 79.152344 72.53125 79.15625 72.742188 79.15625 C 72.957031 79.15625 73.167969 79.148438 73.378906 79.136719 C 73.59375 79.125 73.804688 79.109375 74.015625 79.082031 C 74.226562 79.0625 74.433594 79.03125 74.644531 78.996094 C 74.855469 78.964844 75.0625 78.925781 75.269531 78.878906 C 75.476562 78.835938 75.683594 78.785156 75.886719 78.730469 C 76.09375 78.671875 76.296875 78.613281 76.496094 78.546875 C 76.699219 78.480469 76.898438 78.410156 77.097656 78.332031 C 77.292969 78.253906 77.488281 78.171875 77.683594 78.085938 C 77.875 78 78.066406 77.90625 78.257812 77.8125 C 78.445312 77.714844 78.632812 77.613281 78.816406 77.507812 C 79 77.398438 79.179688 77.289062 79.355469 77.171875 C 79.535156 77.054688 79.710938 76.9375 79.878906 76.8125 C 80.050781 76.6875 80.21875 76.558594 80.386719 76.421875 C 80.550781 76.289062 80.710938 76.152344 80.867188 76.007812 C 81.023438 75.867188 81.179688 75.722656 81.328125 75.570312 C 81.480469 75.421875 81.625 75.265625 81.765625 75.109375 C 81.910156 74.953125 82.046875 74.789062 82.179688 74.625 C 82.3125 74.460938 82.441406 74.292969 82.566406 74.121094 C 82.691406 73.949219 82.8125 73.773438 82.925781 73.597656 C 83.042969 73.417969 83.152344 73.238281 83.261719 73.054688 C 83.367188 72.871094 83.46875 72.683594 83.566406 72.496094 C 83.660156 72.304688 83.753906 72.113281 83.839844 71.921875 C 83.925781 71.726562 84.007812 71.53125 84.082031 71.332031 C 84.160156 71.136719 84.230469 70.933594 84.296875 70.734375 C 84.363281 70.53125 84.421875 70.328125 84.476562 70.125 C 84.53125 69.917969 84.582031 69.710938 84.628906 69.503906 C 84.671875 69.296875 84.710938 69.089844 84.746094 68.878906 C 84.777344 68.671875 84.808594 68.460938 84.828125 68.25 C 84.851562 68.039062 84.871094 67.828125 84.882812 67.613281 C 84.894531 67.402344 84.898438 67.191406 84.898438 66.980469 L 84.898438 47.722656 C 85.222656 47.621094 85.542969 47.511719 85.855469 47.386719 C 86.171875 47.261719 86.480469 47.125 86.78125 46.972656 C 87.085938 46.824219 87.382812 46.664062 87.675781 46.488281 C 87.964844 46.316406 88.246094 46.132812 88.523438 45.9375 C 88.800781 45.742188 89.066406 45.535156 89.328125 45.320312 C 89.585938 45.101562 89.835938 44.875 90.078125 44.640625 C 90.320312 44.402344 90.550781 44.15625 90.773438 43.902344 C 90.996094 43.644531 91.207031 43.382812 91.410156 43.109375 C 91.609375 42.839844 91.800781 42.558594 91.980469 42.273438 C 92.160156 41.984375 92.324219 41.691406 92.480469 41.390625 C 92.636719 41.089844 92.78125 40.785156 92.914062 40.472656 C 93.042969 40.164062 93.164062 39.84375 93.269531 39.523438 C 93.375 39.203125 93.46875 38.878906 93.550781 38.550781 C 93.628906 38.222656 93.699219 37.890625 93.753906 37.558594 C 93.808594 37.222656 93.847656 36.886719 93.875 36.550781 C 93.902344 36.214844 93.917969 35.875 93.917969 35.539062 L 93.917969 30.402344 C 93.917969 30.234375 93.902344 30.066406 93.871094 29.902344 C 93.835938 29.734375 93.785156 29.574219 93.722656 29.417969 C 93.65625 29.261719 93.578125 29.113281 93.480469 28.972656 C 93.386719 28.835938 93.28125 28.703125 93.160156 28.585938 C 93.039062 28.46875 92.910156 28.363281 92.765625 28.269531 C 92.625 28.175781 92.476562 28.097656 92.320312 28.035156 C 92.164062 27.972656 92.003906 27.925781 91.835938 27.894531 C 91.671875 27.863281 91.503906 27.847656 91.332031 27.851562 Z M 42.191406 35.503906 L 28.027344 57.792969 C 27.933594 57.925781 27.824219 58.046875 27.699219 58.152344 C 27.578125 58.257812 27.445312 58.347656 27.296875 58.417969 C 27.152344 58.492188 27 58.542969 26.839844 58.578125 C 26.683594 58.613281 26.523438 58.625 26.359375 58.621094 C 26.292969 58.628906 26.226562 58.628906 26.160156 58.628906 C 26.09375 58.625 26.027344 58.621094 25.960938 58.613281 C 25.894531 58.605469 25.828125 58.589844 25.765625 58.574219 C 25.699219 58.558594 25.636719 58.539062 25.574219 58.515625 C 25.511719 58.488281 25.453125 58.460938 25.394531 58.429688 C 25.332031 58.402344 25.277344 58.367188 25.222656 58.328125 C 25.167969 58.289062 25.113281 58.25 25.0625 58.207031 C 25.011719 58.164062 24.964844 58.117188 24.921875 58.066406 C 24.875 58.019531 24.835938 57.964844 24.796875 57.910156 C 24.757812 57.855469 24.722656 57.800781 24.6875 57.742188 C 24.65625 57.683594 24.628906 57.625 24.601562 57.5625 C 24.578125 57.503906 24.554688 57.441406 24.535156 57.375 C 24.519531 57.3125 24.503906 57.246094 24.492188 57.179688 C 24.484375 57.113281 24.476562 57.046875 24.472656 56.980469 C 24.46875 56.914062 24.472656 56.847656 24.476562 56.78125 C 24.480469 56.714844 24.488281 56.648438 24.5 56.585938 L 28.214844 43.257812 L 18.648438 43.257812 C 18.523438 43.265625 18.394531 43.261719 18.269531 43.242188 C 18.140625 43.222656 18.019531 43.191406 17.898438 43.144531 C 17.777344 43.101562 17.664062 43.042969 17.558594 42.972656 C 17.449219 42.90625 17.351562 42.824219 17.261719 42.734375 C 17.167969 42.644531 17.089844 42.542969 17.019531 42.4375 C 16.953125 42.328125 16.894531 42.214844 16.847656 42.097656 C 16.804688 41.976562 16.769531 41.851562 16.753906 41.726562 C 16.734375 41.597656 16.726562 41.472656 16.734375 41.34375 L 19.320312 24.304688 C 19.328125 24.1875 19.347656 24.078125 19.378906 23.964844 C 19.410156 23.855469 19.453125 23.746094 19.503906 23.644531 C 19.558594 23.542969 19.621094 23.445312 19.691406 23.355469 C 19.761719 23.265625 19.84375 23.183594 19.929688 23.109375 C 20.019531 23.035156 20.113281 22.972656 20.214844 22.917969 C 20.316406 22.863281 20.421875 22.816406 20.53125 22.785156 C 20.640625 22.75 20.753906 22.726562 20.867188 22.714844 C 20.984375 22.703125 21.097656 22.703125 21.210938 22.714844 L 32.15625 22.714844 C 32.226562 22.707031 32.292969 22.703125 32.363281 22.703125 C 32.433594 22.703125 32.503906 22.707031 32.574219 22.71875 C 32.644531 22.726562 32.714844 22.738281 32.78125 22.757812 C 32.847656 22.773438 32.914062 22.792969 32.980469 22.820312 C 33.046875 22.84375 33.109375 22.875 33.171875 22.90625 C 33.234375 22.941406 33.296875 22.976562 33.351562 23.019531 C 33.410156 23.058594 33.464844 23.101562 33.515625 23.148438 C 33.570312 23.195312 33.617188 23.246094 33.664062 23.300781 C 33.710938 23.351562 33.753906 23.40625 33.792969 23.464844 C 33.832031 23.523438 33.867188 23.585938 33.898438 23.648438 C 33.933594 23.707031 33.960938 23.773438 33.984375 23.839844 C 34.007812 23.90625 34.027344 23.972656 34.042969 24.039062 C 34.0625 24.109375 34.074219 24.179688 34.082031 24.25 C 34.089844 24.316406 34.089844 24.386719 34.089844 24.457031 C 34.089844 24.527344 34.085938 24.597656 34.074219 24.667969 C 34.066406 24.738281 34.050781 24.804688 34.035156 24.875 L 32.15625 33.042969 L 40.535156 33.042969 C 40.6875 33.03125 40.839844 33.039062 40.992188 33.070312 C 41.140625 33.097656 41.285156 33.148438 41.425781 33.214844 C 41.5625 33.28125 41.691406 33.367188 41.804688 33.46875 C 41.921875 33.570312 42.019531 33.6875 42.105469 33.8125 C 42.1875 33.941406 42.253906 34.078125 42.304688 34.226562 C 42.351562 34.371094 42.378906 34.523438 42.386719 34.675781 C 42.394531 34.828125 42.382812 34.980469 42.347656 35.128906 C 42.316406 35.28125 42.261719 35.421875 42.191406 35.558594 Z M 42.191406 35.503906 "/></g></g></svg>